<mxfile host="app.diagrams.net" modified="2023-08-01T03:00:16.275Z" agent="Mozilla/5.0 (Windows NT 10.0; Win64; x64) AppleWebKit/537.36 (KHTML, like Gecko) Chrome/114.0.0.0 Safari/537.36" version="21.6.5" etag="Q_TfFBehHjqCP739giZI" type="github">
  <diagram name="Trang-1" id="JnX5AxsKml2rSoBornEo">
    <mxGraphModel>
      <root>
        <mxCell id="0" />
        <mxCell id="1" parent="0" />
      </root>
    </mxGraphModel>
  </diagram>
</mxfile>
